HIERARCHY
ROOT root
{
	OFFSET	0	13.1	24.9
	CHANNELS 6  Xposition Yposition Zposition Xrotation Yrotation Zrotation
	JOINT spine_1
	{
		OFFSET	0	9.99999	0
		CHANNELS 3  Xrotation Yrotation Zrotation
		JOINT spine_2
		{
			OFFSET	0	112	-10
			CHANNELS 3  Xrotation Yrotation Zrotation
			JOINT spine_3
			{
				OFFSET	0	206.5	19.3
				CHANNELS 3  Xrotation Yrotation Zrotation
				JOINT spine_4
				{
					OFFSET	0	110.4	14.6
					CHANNELS 3  Xrotation Yrotation Zrotation
					JOINT neck_1
					{
						OFFSET	0	71.8	-50.3
						CHANNELS 3  Xrotation Yrotation Zrotation
						JOINT neck_2
						{
							OFFSET	0	86.2	-25.8
							CHANNELS 3  Xrotation Yrotation Zrotation
							JOINT head_ee
							{
								OFFSET	0	179.8	-8.7
								CHANNELS 3  Xrotation Yrotation Zrotation
								End Site
								{
									OFFSET	1	0	0
								}
							}
						}
					}
					JOINT left_clavicle
					{
						OFFSET	-43.2	22.4	-70.8
						CHANNELS 3  Xrotation Yrotation Zrotation
						JOINT left_shoulder
						{
							OFFSET	-93.9	-5.79999	48.7
							CHANNELS 3  Xrotation Yrotation Zrotation
							JOINT left_elbow
							{
								OFFSET	-291.4	-30.8	15.2
								CHANNELS 3  Xrotation Yrotation Zrotation
								JOINT left_lowarm_twist
								{
									OFFSET	-110.7	-3.89999	13.6
									CHANNELS 3  Xrotation Yrotation Zrotation
									JOINT left_hand
									{
										OFFSET	-110.7	-3.89999	13.6
										CHANNELS 3  Xrotation Yrotation Zrotation
										JOINT left_ee
										{
											OFFSET	-80.8	-5.10001	12.1
											CHANNELS 3  Xrotation Yrotation Zrotation
											End Site
											{
												OFFSET	1	0	0
											}
										}
									}
								}
							}
						}
					}
					JOINT right_clavicle
					{
						OFFSET	43.2	22.4	-70.8
						CHANNELS 3  Xrotation Yrotation Zrotation
						JOINT right_shoulder
						{
							OFFSET	93.9	-5.79999	48.7
							CHANNELS 3  Xrotation Yrotation Zrotation
							JOINT right_elbow
							{
								OFFSET	291.4	-30.8	15.2
								CHANNELS 3  Xrotation Yrotation Zrotation
								JOINT right_lowarm_twist
								{
									OFFSET	110.7	-3.89999	13.6
									CHANNELS 3  Xrotation Yrotation Zrotation
									JOINT right_hand
									{
										OFFSET	110.7	-3.89999	13.6
										CHANNELS 3  Xrotation Yrotation Zrotation
										JOINT right_ee
										{
											OFFSET	80.8	-5.10001	12.1
											CHANNELS 3  Xrotation Yrotation Zrotation
											End Site
											{
												OFFSET	1	0	0
											}
										}
									}
								}
							}
						}
					}
				}
			}
		}
	}
	JOINT left_hip
	{
		OFFSET	-82.8	-127.5	0.300001
		CHANNELS 3  Xrotation Yrotation Zrotation
		JOINT left_knee
		{
			OFFSET	-28.2	-396.7	2.2
			CHANNELS 3  Xrotation Yrotation Zrotation
			JOINT left_ankle
			{
				OFFSET	-11.7	-411.3	35.4
				CHANNELS 3  Xrotation Yrotation Zrotation
				JOINT left_toes
				{
					OFFSET	0	-60	-88.6
					CHANNELS 3  Xrotation Yrotation Zrotation
					JOINT left_foot_ee
					{
						OFFSET	-22.5	-16.5	-42.2
						CHANNELS 3  Xrotation Yrotation Zrotation
						End Site
						{
							OFFSET	1	0	0
						}
					}
				}
			}
		}
	}
	JOINT right_hip
	{
		OFFSET	82.8	-127.5	0.300001
		CHANNELS 3  Xrotation Yrotation Zrotation
		JOINT right_knee
		{
			OFFSET	28.2	-396.7	2.2
			CHANNELS 3  Xrotation Yrotation Zrotation
			JOINT right_ankle
			{
				OFFSET	11.7	-411.3	35.4
				CHANNELS 3  Xrotation Yrotation Zrotation
				JOINT right_toes
				{
					OFFSET	0	-60	-88.6
					CHANNELS 3  Xrotation Yrotation Zrotation
					JOINT right_foot_ee
					{
						OFFSET	22.5	-16.5	-42.2
						CHANNELS 3  Xrotation Yrotation Zrotation
						End Site
						{
							OFFSET	1	0	0
						}
					}
				}
			}
		}
	}
}
MOTION
Frames: 13
Frame Time: 0.02
1372.05 701.618 -1475.22 -4.06684078818 28.7650856491 7.83596644377 1.74369 -0.33001 -2.15321 1.74625 -0.19236 -2.16984 1.75366 0.201753 -2.16898 1.74713 -0.143247 -2.17363 3.1223 5.29897 2.89789 3.17219 6.75005 3.60122 -0.0 0.0 -0.0 8.48853 -10.7709 16.5371 -2.72598 -12.1561 53.605 1.62539 -38.8371 0.573016 3.97219 0.12292 -0.492379 -1.51609 -24.6465 -20.6376 -0.0 0.0 -0.0 5.39355 -6.1381 -10.531 -30.951 34.9988 -58.3682 0.29089 8.19998 -0.0208512 -1.07427 0.0390876 -0.131618 0.672008 21.6386 4.74606 0.0 0.0 0.0 -8.88564 6.45161 0.0137871 -5.88717 0.197236 0.881584 40.7251 7.04908 -4.92349 30.6919 -0.0 -0.0 -0.0 0.0 -0.0 30.0596 12.8585 -13.1044 -0.209011 -0.00855012 -0.0309352 -9.00368 -5.49528 -1.34251 26.3904 -0.0 -0.0 0.0 0.0 0.0 
1356.71252817 708.731 -1496.37906798 -3.05348337257 28.0966298836 6.74153169727 1.71612 -0.284425 -2.09196 1.71854 -0.150762 -2.10581 1.7242 0.232235 -2.09839 1.71807 -0.102006 -2.10873 2.65137 4.01762 2.85226 2.68174 4.59684 3.46555 -0.0 0.0 -0.0 8.58545 -10.8135 16.7447 -5.54985 -11.3293 55.0422 1.40069 -34.7532 0.438341 4.91126 0.146966 -0.609925 -1.498 -24.4921 -20.4544 -0.0 0.0 -0.0 5.68885 -5.38532 -11.0741 -30.334 35.156 -57.5313 0.289354 8.15726 -0.0206328 -0.601478 0.0215808 -0.0737815 0.628437 19.9303 4.29288 0.0 0.0 0.0 -7.19784 6.69686 -0.701011 -11.1715 0.29638 1.68612 40.7662 7.0987 -4.92717 32.6703 -0.0 -0.0 -0.0 0.0 -0.0 28.2763 13.0825 -12.8469 -1.79821 -0.0698529 -0.267111 -10.16 -8.5261 -1.51502 28.5723 -0.0 -0.0 0.0 0.0 0.0 
1357.08168089 708.731 -1496.64180252 -3.02594192139 27.1046066187 6.68208838955 1.71612 -0.284425 -2.09196 1.71854 -0.150762 -2.10581 1.7242 0.232235 -2.09839 1.71807 -0.102006 -2.10873 2.65137 4.01762 2.85226 2.68174 4.59684 3.46555 -0.0 0.0 -0.0 8.58545 -10.8135 16.7447 -5.54985 -11.3293 55.0422 1.40069 -34.7532 0.438341 4.91126 0.146966 -0.609925 -1.498 -24.4921 -20.4544 -0.0 0.0 -0.0 5.68885 -5.38532 -11.0741 -30.334 35.156 -57.5313 0.289354 8.15726 -0.0206328 -0.601478 0.0215808 -0.0737815 0.628437 19.9303 4.29288 0.0 0.0 0.0 -7.19784 6.69686 -0.701011 -11.1715 0.29638 1.68612 40.7662 7.0987 -4.92717 32.6703 -0.0 -0.0 -0.0 0.0 -0.0 28.2763 13.0825 -12.8469 -1.79821 -0.0698529 -0.267111 -10.16 -8.5261 -1.51502 28.5723 -0.0 -0.0 0.0 0.0 0.0 
1357.4374971 708.731 -1496.88607854 -3.00099557146 26.1596487776 6.62643881587 1.71612 -0.284425 -2.09196 1.71854 -0.150762 -2.10581 1.7242 0.232235 -2.09839 1.71807 -0.102006 -2.10873 2.65137 4.01762 2.85226 2.68174 4.59684 3.46555 -0.0 0.0 -0.0 8.58545 -10.8135 16.7447 -5.54985 -11.3293 55.0422 1.40069 -34.7532 0.438341 4.91126 0.146966 -0.609925 -1.498 -24.4921 -20.4544 -0.0 0.0 -0.0 5.68885 -5.38532 -11.0741 -30.334 35.156 -57.5313 0.289354 8.15726 -0.0206328 -0.601478 0.0215808 -0.0737815 0.628437 19.9303 4.29288 0.0 0.0 0.0 -7.19784 6.69686 -0.701011 -11.1715 0.29638 1.68612 40.7662 7.0987 -4.92717 32.6703 -0.0 -0.0 -0.0 0.0 -0.0 28.2763 13.0825 -12.8469 -1.79821 -0.0698529 -0.267111 -10.16 -8.5261 -1.51502 28.5723 -0.0 -0.0 0.0 0.0 0.0 
1329.27224581 716.103 -1526.21534632 -2.45981891784 27.9499643579 5.75783294701 1.79296 -0.403118 -2.42729 1.7962 -0.247893 -2.44801 1.80693 0.194956 -2.45279 1.79859 -0.194743 -2.45281 1.38244 2.29297 2.29639 1.39671 2.12699 2.71509 -0.0 0.0 -0.0 9.29543 -10.5535 18.288 -10.3339 -10.0297 59.7869 1.07683 -28.076 0.269249 5.33697 0.157232 -0.663338 -1.52956 -24.1889 -20.556 -0.0 0.0 -0.0 6.58602 -3.90933 -12.7683 -28.4493 34.7455 -57.37 0.3004 8.46423 -0.0222293 1.15185 -0.039158 0.141898 0.560215 17.4808 3.68696 0.0 0.0 0.0 -5.73714 8.74005 -1.15067 -17.6953 0.315953 2.68635 39.7569 4.11617 -4.83727 35.6528 -0.0 -0.0 -0.0 0.0 -0.0 26.373 13.4223 -11.9877 -2.70932 -0.102033 -0.403235 -7.07521 -12.3706 -1.05244 32.2048 -0.0 -0.0 0.0 0.0 0.0 
1309.80795279 716.828 -1551.21882077 -2.02395748873 28.7622540588 5.61149940597 1.7664 -0.432936 -2.36551 1.76947 -0.281579 -2.38825 1.78139 0.152137 -2.39997 1.77342 -0.228691 -2.39389 -1.23272 1.57976 1.91702 -1.22305 1.29885 2.22505 -0.0 0.0 -0.0 9.50679 -10.6734 18.7452 -11.9699 -10.0066 61.8489 0.983616 -25.9774 0.226886 5.52805 0.16171 -0.687336 -1.38266 -22.625 -18.9384 -0.0 0.0 -0.0 6.37881 -3.12536 -12.3764 -28.4124 34.3923 -55.9182 0.304709 8.58384 -0.022868 2.14654 -0.0706697 0.26504 0.798434 18.3586 2.47901 0.0 0.0 0.0 -5.41849 8.72863 -1.3612 -19.5854 0.300341 2.97592 39.0142 2.91421 -4.77486 36.3645 -0.0 -0.0 -0.0 0.0 -0.0 24.282 13.5172 -12.4694 -4.35849 -0.154754 -0.650834 -0.545789 -13.364 -0.0802708 34.9895 -0.0 -0.0 0.0 0.0 0.0 
1312.2952237 716.828 -1553.18960888 -1.98972491663 26.9123897409 5.53819996582 1.7664 -0.432936 -2.36551 1.76947 -0.281579 -2.38825 1.78139 0.152137 -2.39997 1.77342 -0.228691 -2.39389 -1.23272 1.57976 1.91702 -1.22305 1.29885 2.22505 -0.0 0.0 -0.0 9.50679 -10.6734 18.7452 -11.9699 -10.0066 61.8489 0.983616 -25.9774 0.226886 5.52805 0.16171 -0.687336 -1.38266 -22.625 -18.9384 -0.0 0.0 -0.0 6.37881 -3.12536 -12.3764 -28.4124 34.3923 -55.9182 0.304709 8.58384 -0.022868 2.14654 -0.0706697 0.26504 0.798434 18.3586 2.47901 0.0 0.0 0.0 -5.41849 8.72863 -1.3612 -19.5854 0.300341 2.97592 39.0142 2.91421 -4.77486 36.3645 -0.0 -0.0 -0.0 0.0 -0.0 24.282 13.5172 -12.4694 -4.35849 -0.154754 -0.650834 -0.545789 -13.364 -0.0802708 34.9895 -0.0 -0.0 0.0 0.0 0.0 
1315.09744987 716.828 -1555.25936677 -1.95575980239 24.8815711639 5.46044510437 1.7664 -0.432936 -2.36551 1.76947 -0.281579 -2.38825 1.78139 0.152137 -2.39997 1.77342 -0.228691 -2.39389 -1.23272 1.57976 1.91702 -1.22305 1.29885 2.22505 -0.0 0.0 -0.0 9.50679 -10.6734 18.7452 -11.9699 -10.0066 61.8489 0.983616 -25.9774 0.226886 5.52805 0.16171 -0.687336 -1.38266 -22.625 -18.9384 -0.0 0.0 -0.0 6.37881 -3.12536 -12.3764 -28.4124 34.3923 -55.9182 0.304709 8.58384 -0.022868 2.14654 -0.0706697 0.26504 0.798434 18.3586 2.47901 0.0 0.0 0.0 -5.41849 8.72863 -1.3612 -19.5854 0.300341 2.97592 39.0142 2.91421 -4.77486 36.3645 -0.0 -0.0 -0.0 0.0 -0.0 24.282 13.5172 -12.4694 -4.35849 -0.154754 -0.650834 -0.545789 -13.364 -0.0802708 34.9895 -0.0 -0.0 0.0 0.0 0.0 
1312.59452467 723.817 -1573.59509315 -1.15693523136 25.3678088115 5.19767869507 1.87581 -0.375165 -2.32889 1.87879 -0.226253 -2.34803 1.88812 0.194997 -2.35083 1.88045 -0.178615 -2.35213 -3.32349 1.08549 2.00774 -3.31258 0.419533 2.24343 -0.0 0.0 -0.0 9.19857 -11.6731 18.0484 -13.6328 -10.0652 63.2002 0.884215 -23.6538 0.185159 5.76637 0.167183 -0.717288 -1.30483 -20.8724 -17.7083 -0.0 0.0 -0.0 6.71578 -2.13292 -13.0294 -27.4502 34.4607 -54.5972 0.325991 9.1735 -0.0261529 3.31735 -0.105013 0.410648 0.967624 18.99 1.63058 0.0 0.0 0.0 -5.06314 6.04489 -2.00113 -20.8457 0.284628 3.16865 38.5374 2.95369 -4.73236 36.8569 -0.0 -0.0 -0.0 0.0 -0.0 22.6391 13.5886 -12.8969 -5.51456 -0.187449 -0.825238 4.04759 -15.0238 0.590292 36.9482 -0.0 -0.0 0.0 0.0 0.0 
1309.45938065 722.919 -1593.00780994 -0.609656804121 24.3567595909 4.27222372225 1.93778 -0.328203 -2.272 1.94064 -0.183003 -2.28827 1.94792 0.224569 -2.28457 1.94066 -0.138957 -2.29137 -4.77976 0.984332 2.11326 -4.76743 0.211645 2.3252 -0.0 0.0 -0.0 9.27752 -12.2798 18.2021 -14.8291 -10.1253 65.6635 0.81837 -22.0673 0.159577 6.06952 0.173965 -0.755419 -1.23842 -19.5501 -16.7178 -0.0 0.0 -0.0 6.98798 -1.73696 -13.5619 -26.774 34.5198 -54.7028 0.340894 9.58525 -0.0285816 4.04339 -0.124811 0.501277 1.08423 19.4322 1.05197 0.0 0.0 0.0 -4.79378 3.77305 -2.50689 -22.0078 0.266383 3.34604 38.496 2.94878 -4.72867 37.3197 -0.0 -0.0 -0.0 0.0 -0.0 21.4839 13.6412 -13.233 -6.32121 -0.208173 -0.947294 7.27924 -16.1679 1.05457 38.3704 -0.0 -0.0 0.0 0.0 0.0 
1272.66220498 727.211 -1642.70295406 -0.839861104378 28.9073809592 6.92352010397 2.29293 0.0935867 -2.48603 2.29633 0.251541 -2.47505 2.28486 0.671613 -2.39547 2.27696 0.284985 -2.47142 -1.45895 0.828137 2.3298 -1.44338 -0.374187 2.56782 -0.0 0.0 -0.0 8.32958 -10.2367 16.2113 -20.1691 -10.1336 70.2961 0.523228 -14.531 0.0667075 4.65494 0.140594 -0.577803 -0.499972 -18.7735 -11.3564 -0.0 0.0 -0.0 7.53008 -0.979661 -14.6357 -26.0543 33.168 -55.9554 0.369882 10.3833 -0.0336076 6.88592 -0.191225 0.858278 1.65851 21.6363 -1.74634 0.0 0.0 0.0 -3.58085 -4.01715 -3.64943 -29.1241 0.0766189 4.42095 39.8149 2.7096 -4.84555 39.5149 -0.0 -0.0 -0.0 0.0 -0.0 16.5973 13.4347 -15.558 -7.67739 -0.239134 -1.1531 12.4934 -18.0879 1.78913 40.1468 -0.0 -0.0 0.0 0.0 0.0 
1260.0788825 727.708 -1657.02143164 0.581556752607 31.5863887677 6.55869441215 2.20755 -0.09426 -2.73123 2.21169 0.0796605 -2.7317 2.20736 0.549746 -2.67703 2.19738 0.120224 -2.73021 -2.29321 0.0304488 2.62645 -2.26936 -2.0177 2.75772 -0.0 0.0 -0.0 7.57936 -8.50314 14.6643 -22.9856 -10.8545 72.5015 0.475493 -13.2543 0.0552452 4.1901 0.128672 -0.519621 0.0591237 -18.399 -7.43361 -0.0 0.0 -0.0 7.98635 -0.0163579 -15.5592 -24.2181 33.3711 -56.4387 0.422964 11.8339 -0.0438357 8.07661 -0.213765 1.0087 1.78882 21.0462 -2.87641 0.0 0.0 0.0 -3.08668 -9.09148 -3.96669 -33.4998 -0.105817 5.06749 39.1293 1.90927 -4.78888 39.9064 -0.0 -0.0 -0.0 0.0 -0.0 14.7872 13.5309 -16.0589 -8.18202 -0.249409 -1.22986 11.6671 -19.0558 1.68099 39.4224 -0.0 -0.0 0.0 0.0 0.0 
1245.3833645 732.16 -1669.70340508 1.80463797191 35.060268794 5.55206053297 2.20226 -0.156936 -2.5324 2.20582 0.00447201 -2.53725 2.20521 0.442112 -2.49846 2.1965 0.0421105 -2.5369 -5.26274 -1.01198 2.81855 -5.23373 -3.9709 2.68736 -0.0 0.0 -0.0 7.15442 -8.72749 13.7613 -24.1644 -11.6364 72.3046 0.517817 -14.387 0.0653564 4.82926 0.144943 -0.599646 0.780777 -15.5548 -1.37612 -0.0 0.0 -0.0 8.19589 1.39465 -16.0031 -22.8284 33.578 -55.9596 0.540901 15.0 -0.0712115 10.529 -0.250312 1.31981 2.03282 20.5684 -4.71059 0.0 0.0 0.0 0.701592 -13.9319 -2.50599 -39.9076 -0.460899 5.98535 35.303 -1.38347 -4.46001 40.1771 -0.0 -0.0 -0.0 0.0 -0.0 12.9692 13.8303 -16.1891 -8.77077 -0.260542 -1.31952 14.5995 -20.2395 2.09087 37.2434 -0.0 -0.0 0.0 0.0 0.0 
